<svg xmlns="http://www.w3.org/2000/svg" viewBox="0 0 36 24"><rect width="36" height="24" fill="#012169"/><g transform="scale(.48)"><path stroke="#fff" stroke-width="7" d="M0 0l36 24M36 0L0 24"/><path stroke="#c8102e" stroke-width="3" d="M0 0l36 24M36 0L0 24"/><path stroke="#fff" stroke-width="9" d="M18 0v24M0 12h36"/><path stroke="#c8102e" stroke-width="5" d="M18 0v24M0 12h36"/></g><g fill="#fff"><path d="M9 15l1 2.2 2.4.2-1.8 1.6.6 2.4-2.2-1.3-2.1 1.3.6-2.4-1.8-1.6 2.4-.2z"/><circle cx="26" cy="6" r="1.2"/><circle cx="30" cy="11" r="1"/><circle cx="25" cy="15" r="1.1"/><circle cx="31" cy="19" r="1.1"/></g></svg>
